<svg xmlns="http://www.w3.org/2000/svg" data-name="Layer 1" viewBox="0 0 100 125" x="0px" y="0px"><title>Artboard 43</title><path d="M95.19,21H88.52V12.58a2.5,2.5,0,0,0-2.5-2.5H77.8V3.5A2.5,2.5,0,0,0,75.3,1H69.86A22.52,22.52,0,0,0,48.34,16.59a29.51,29.51,0,0,0-18.46-6.51H14a2.5,2.5,0,0,0-2.5,2.5V21H4.81A3.78,3.78,0,0,0,1,24.8V86.1a3.78,3.78,0,0,0,3.78,3.78h24.8a14.88,14.88,0,0,1,11.09,5l.35.36a12.54,12.54,0,0,0,1.46,1.29c.2.15.41.29.6.42a12.6,12.6,0,0,0,1.43.82l.25.12c.27.13.53.24.79.34a10.56,10.56,0,0,0,1.07.34c.24.07.56.15.93.23a12.34,12.34,0,0,0,1.64.21c.25,0,.51,0,.77,0a12.53,12.53,0,0,0,2.46-.25c.32-.06.58-.13.73-.18a10.74,10.74,0,0,0,1.2-.37l.13-.05.63-.27.17-.08.07,0a12.43,12.43,0,0,0,1.54-.88l.52-.36a13,13,0,0,0,1.61-1.43l.09-.1.2-.22a14.58,14.58,0,0,1,11-4.91h24.8A3.78,3.78,0,0,0,99,86.1V24.8A3.78,3.78,0,0,0,95.19,21ZM83.52,15.08V73.92H70.12a29.5,29.5,0,0,0-16.76,5.24,17.55,17.55,0,0,1,16.5-11.32H75.3a2.5,2.5,0,0,0,2.5-2.5V15.08ZM69.86,6H72.8V62.84H69.86a22.73,22.73,0,0,0-17.36,8V20.71a14.37,14.37,0,0,1,.42-2A17.5,17.5,0,0,1,69.86,6ZM16.48,15.08h13.4a24.5,24.5,0,0,1,17.62,7.5v57.2a29.5,29.5,0,0,0-17.62-5.86H16.48ZM55.42,91.67a7.72,7.72,0,0,1-1,.85l-.3.21a7.32,7.32,0,0,1-.88.51l-.07,0-.15.07-.41.18a6.64,6.64,0,0,1-.74.23l-.43.1A7.48,7.48,0,0,1,50,94l-.43,0a7.44,7.44,0,0,1-1-.13c-.21,0-.39-.09-.58-.14a6.05,6.05,0,0,1-.63-.2l-.41-.18-.21-.1a7.49,7.49,0,0,1-.86-.49l-.36-.25a7.76,7.76,0,0,1-.9-.8l-.19-.2a19.88,19.88,0,0,0-14.81-6.63H6V26h5.45v50.4a2.5,2.5,0,0,0,2.5,2.5h15.9A24.5,24.5,0,0,1,48.14,87.1a2.5,2.5,0,0,0,3.73,0,24.51,24.51,0,0,1,18.26-8.17H86a2.5,2.5,0,0,0,2.5-2.5V26H94V84.87H70.39a19.58,19.58,0,0,0-14.82,6.64Z"/><path d="M23.56,38.82h4.15a24,24,0,0,1,10.58,2.47A2.5,2.5,0,0,0,41.89,39V28a2.5,2.5,0,0,0-1.4-2.24,28.91,28.91,0,0,0-12.79-3H23.56a2.5,2.5,0,0,0-2.5,2.5V36.32A2.5,2.5,0,0,0,23.56,38.82Zm2.5-11.06h1.65a23.82,23.82,0,0,1,8.23,1.46l1,.37v5.72a28.8,28.8,0,0,0-9.19-1.5H26.06Z"/><path d="M23.56,49.88h4.15a23.82,23.82,0,0,1,8.23,1.46,24.13,24.13,0,0,1,2.35,1,2.5,2.5,0,1,0,2.21-4.48,28.91,28.91,0,0,0-12.79-3H23.56a2.5,2.5,0,0,0,0,5Z"/><path d="M38.29,63.42a2.5,2.5,0,1,0,2.21-4.48,29.31,29.31,0,0,0-2.84-1.22,28.85,28.85,0,0,0-10-1.77H23.56a2.5,2.5,0,0,0,0,5h4.15a23.85,23.85,0,0,1,8.23,1.46A24.13,24.13,0,0,1,38.29,63.42Z"/><text x="0" y="115" fill="#000000" font-size="5px" font-weight="bold" font-family="'Helvetica Neue', Helvetica, Arial-Unicode, Arial, Sans-serif">Created by Gregor Cresnar</text><text x="0" y="120" fill="#000000" font-size="5px" font-weight="bold" font-family="'Helvetica Neue', Helvetica, Arial-Unicode, Arial, Sans-serif">from the Noun Project</text></svg>